<svg width="1920" height="1080" viewBox="0 0 1920 1080" fill="none" xmlns="http://www.w3.org/2000/svg">
<rect width="1920" height="1080" fill="url(#paint0_linear_1_2)"/>
<rect x="269.56" y="196" width="200" height="450" transform="rotate(12 269.56 196)" fill="url(#paint1_linear_1_2)"/>
<rect x="1567" y="272.431" width="200" height="450" transform="rotate(-5 1567 272.431)" fill="url(#paint2_linear_1_2)"/>
<rect x="976.588" y="740.766" width="160" height="390" transform="rotate(96 976.588 740.766)" fill="url(#paint3_linear_1_2)"/>
<rect x="1320.13" y="361" width="180" height="300" transform="rotate(45 1320.13 361)" fill="url(#paint4_linear_1_2)"/>
<path d="M690.25 968.75V965.5H687V946H693.5V965.5H703.25V946H709.75V965.5H706.5V968.75H690.25ZM713 968.75V965.5H729.25V962.25H716.25V959H713V955.75H716.25V952.5H732.5V955.75H719.5V959H732.5V962.25H735.75V965.5H732.5V968.75H713ZM742.25 968.75V965.5H739V955.75H742.25V952.5H758.5V955.75H761.75V962.25H745.5V965.5H758.5V968.75H742.25ZM745.5 959H755.25V955.75H745.5V959ZM791 968.75V952.5H810.5V955.75H813.75V968.75H807.25V955.75H804V968.75H797.5V955.75H794.25V968.75H791ZM820.25 968.75V965.5H817V955.75H820.25V952.5H836.5V955.75H839.75V965.5H836.5V968.75H820.25ZM823.5 965.5H833.25V955.75H823.5V965.5ZM846.25 968.75V965.5H843V952.5H849.5V965.5H859.25V952.5H865.75V968.75H846.25ZM869 968.75V965.5H885.25V962.25H872.25V959H869V955.75H872.25V952.5H888.5V955.75H875.5V959H888.5V962.25H891.75V965.5H888.5V968.75H869ZM898.25 968.75V965.5H895V955.75H898.25V952.5H914.5V955.75H917.75V962.25H901.5V965.5H914.5V968.75H898.25ZM901.5 959H911.25V955.75H901.5V959ZM956.75 968.75V955.75H950.25V952.5H956.75V946H963.25V952.5H969.75V955.75H963.25V968.75H956.75ZM976.25 968.75V965.5H973V955.75H976.25V952.5H992.5V955.75H995.75V965.5H992.5V968.75H976.25ZM979.5 965.5H989.25V955.75H979.5V965.5ZM1025 968.75V952.5H1044.5V955.75H1047.75V968.75H1041.25V955.75H1031.5V968.75H1025ZM1054.25 968.75V965.5H1051V962.25H1054.25V959H1067.25V955.75H1054.25V952.5H1070.5V955.75H1073.75V968.75H1054.25ZM1057.5 965.5H1067.25V962.25H1057.5V965.5ZM1086.75 968.75V965.5H1083.5V962.25H1080.25V952.5H1086.75V962.25H1093.25V952.5H1099.75V962.25H1096.5V965.5H1093.25V968.75H1086.75ZM1112.75 949.25V946H1119.25V949.25H1112.75ZM1106.25 968.75V965.5H1112.75V955.75H1109.5V952.5H1119.25V965.5H1125.75V968.75H1106.25ZM1132.25 972V968.75H1145.25V965.5H1132.25V962.25H1129V955.75H1132.25V952.5H1151.75V968.75H1148.5V972H1132.25ZM1135.5 962.25H1145.25V955.75H1135.5V962.25ZM1158.25 968.75V965.5H1155V962.25H1158.25V959H1171.25V955.75H1158.25V952.5H1174.5V955.75H1177.75V968.75H1158.25ZM1161.5 965.5H1171.25V962.25H1161.5V965.5ZM1190.75 968.75V955.75H1184.25V952.5H1190.75V946H1197.25V952.5H1203.75V955.75H1197.25V968.75H1190.75ZM1210.25 968.75V965.5H1207V955.75H1210.25V952.5H1226.5V955.75H1229.75V962.25H1213.5V965.5H1226.5V968.75H1210.25ZM1213.5 959H1223.25V955.75H1213.5V959Z" fill="white" fill-opacity="0.5"/>
<circle cx="960" cy="233" r="87" stroke="#FB2C36" stroke-width="6"/>
<circle cx="960" cy="233" r="145" stroke="#FB2C36" stroke-width="10"/>
<path d="M760.5 208.5V198H750V135H771V198H802.5V135H823.5V198H813V208.5H760.5ZM834 208.5V156H897V166.5H907.5V208.5H886.5V166.5H855V208.5H834ZM949.5 208.5V166.5H928.5V156H949.5V135H970.5V156H991.5V166.5H970.5V208.5H949.5ZM1033.5 145.5V135H1054.5V145.5H1033.5ZM1012.5 208.5V198H1033.5V166.5H1023V156H1054.5V198H1075.5V208.5H1012.5ZM1096.5 208.5V198H1117.5V145.5H1107V135H1138.5V198H1159.5V208.5H1096.5ZM718.5 320.5V310H739.5V257.5H718.5V247H781.5V257.5H760.5V310H781.5V320.5H718.5ZM876 320.5V247H939V257.5H949.5V289H928.5V299.5H939V310H949.5V320.5H918V310H907.5V299.5H897V320.5H876ZM897 289H918V278.5H928.5V257.5H897V289ZM970.5 320.5V310H960V278.5H970.5V268H1023V278.5H1033.5V299.5H981V310H1023V320.5H970.5ZM981 289H1012.5V278.5H981V289ZM1054.5 320.5V310H1044V299.5H1054.5V289H1096.5V278.5H1054.5V268H1107V278.5H1117.5V320.5H1054.5ZM1065 310H1096.5V299.5H1065V310ZM1138.5 320.5V310H1128V278.5H1138.5V268H1180.5V247H1201.5V320.5H1138.5ZM1149 310H1180.5V278.5H1149V310Z" fill="white"/>
<path d="M582 552V544H590V552H582Z" fill="white" fill-opacity="0.5"/>
<path d="M184 117V109H192V117H184Z" fill="white" fill-opacity="0.5"/>
<path d="M1220 717V709H1228V717H1220Z" fill="white" fill-opacity="0.5"/>
<path d="M1382 264V256H1390V264H1382Z" fill="white" fill-opacity="0.5"/>
<path d="M1678 151V143H1686V151H1678Z" fill="white" fill-opacity="0.5"/>
<path d="M1575 812V804H1583V812H1575Z" fill="white" fill-opacity="0.5"/>
<path d="M1455 487V479H1463V487H1455Z" fill="white" fill-opacity="0.5"/>
<path d="M1335 162V154H1343V162H1335Z" fill="white" fill-opacity="0.5"/>
<path d="M531 202V194H539V202H531Z" fill="white" fill-opacity="0.5"/>
<path d="M134 984V976H142V984H134Z" fill="white" fill-opacity="0.5"/>
<path d="M368 756V748H376V756H368Z" fill="white" fill-opacity="0.5"/>
<path d="M118 336V328H126V336H118Z" fill="white" fill-opacity="0.5"/>
<path d="M898 536V528H906V536H898Z" fill="white" fill-opacity="0.5"/>
<path d="M515 971V963H523V971H515Z" fill="white" fill-opacity="0.5"/>
<path d="M1389 987V979H1397V987H1389Z" fill="white" fill-opacity="0.5"/>
<path d="M1761 902V894H1769V902H1761Z" fill="white" fill-opacity="0.5"/>
<path d="M716 90V82H724V90H716Z" fill="white" fill-opacity="0.5"/>
<path d="M1270 568V560H1278V568H1270Z" fill="white" fill-opacity="0.5"/>
<path d="M660 357V349H668V357H660Z" fill="white" fill-opacity="0.5"/>
<path d="M82 175V167H90V175H82Z" fill="white" fill-opacity="0.5"/>
<path d="M118 701V693H126V701H118Z" fill="white" fill-opacity="0.5"/>
<path d="M846 789V781H854V789H846Z" fill="white" fill-opacity="0.5"/>
<path d="M1471 716V708H1479V716H1471Z" fill="white" fill-opacity="0.5"/>
<path d="M1646 664V656H1654V664H1646Z" fill="white" fill-opacity="0.5"/>
<path d="M1821 612V604H1829V612H1821Z" fill="white" fill-opacity="0.5"/>
<path d="M1507 99V91H1515V99H1507Z" fill="white" fill-opacity="0.5"/>
<path d="M732 661V653H740V661H732Z" fill="white" fill-opacity="0.5"/>
<path d="M1729 440V432H1737V440H1729Z" fill="white" fill-opacity="0.5"/>
<defs>
<linearGradient id="paint0_linear_1_2" x1="1920" y1="1080" x2="1.16229e-05" y2="-2.06629e-05" gradientUnits="userSpaceOnUse">
<stop stop-color="#1E2939"/>
<stop offset="0.5" stop-color="#101828"/>
<stop offset="1" stop-color="#030712"/>
</linearGradient>
<linearGradient id="paint1_linear_1_2" x1="369.56" y1="196" x2="369.56" y2="646" gradientUnits="userSpaceOnUse">
<stop stop-color="#9F2D00" stop-opacity="0.2"/>
<stop offset="1" stop-color="#F54A00" stop-opacity="0.2"/>
</linearGradient>
<linearGradient id="paint2_linear_1_2" x1="1667" y1="272.431" x2="1667" y2="722.431" gradientUnits="userSpaceOnUse">
<stop stop-color="#9F2D00" stop-opacity="0.2"/>
<stop offset="1" stop-color="#F54A00" stop-opacity="0.2"/>
</linearGradient>
<linearGradient id="paint3_linear_1_2" x1="1056.59" y1="740.766" x2="1056.59" y2="1130.77" gradientUnits="userSpaceOnUse">
<stop stop-color="#D08700" stop-opacity="0.2"/>
<stop offset="1" stop-color="#894B00" stop-opacity="0.2"/>
</linearGradient>
<linearGradient id="paint4_linear_1_2" x1="1410.13" y1="361" x2="1410.13" y2="661" gradientUnits="userSpaceOnUse">
<stop stop-color="#4A5565" stop-opacity="0.2"/>
<stop offset="1" stop-color="#1E2939" stop-opacity="0.2"/>
</linearGradient>
</defs>
</svg>
